{
  "source": "C:\\Users\\Peter\\Desktop\\stuff\\MIUN\\quantitative_research\\video_compression\\videos\\BVI-HD\\KineticFastPainting_1920x1080_60fps.mp4",
  "output": "C:\\Users\\Peter\\Desktop\\stuff\\MIUN\\quantitative_research\\video_compression\\compressed_videos\\BVI-HD\\av1\\12\\KineticFastPainting_1920x1080_60fps_av1.mkv",
  "codec": "av1",
  "ok": "Input #0, mov,mp4,m4a,3gp,3g2,mj2, from 'C:\\Users\\Peter\\Desktop\\stuff\\MIUN\\quantitative_research\\video_compression\\videos\\BVI-HD\\KineticFastPainting_1920x1080_60fps.mp4':\n  Metadata:\n    major_brand     : isom\n    minor_version   : 512\n    compatible_brands: isomiso2avc1mp41\n    encoder         : Lavf54.28.101\n  Duration: 00:00:05.00, start: 0.000000, bitrate: 477980 kb/s\n  Stream #0:0[0x1](und): Video: h264 (High 4:4:4 Predictive) (avc1 / 0x31637661), yuv420p(progressive), 1920x1080, 477974 kb/s, 60 fps, 60 tbr, 60 tbn (default)\n    Metadata:\n      handler_name    : VideoHandler\n      vendor_id       : [0][0][0][0]\n[out#0/matroska @ 00000261278194c0] Codec AVOption b:a (set bitrate (in bits/s)) has not been used for any stream. The most likely reason is either wrong type (e.g. a video option with no video streams) or that it is a private option of some decoder which was not actually used for any stream.\nStream mapping:\n  Stream #0:0 -> #0:0 (h264 (native) -> av1 (libsvtav1))\nPress [q] to stop, [?] for help\nSvt[info]: -------------------------------------------\nSvt[info]: SVT [version]:\tSVT-AV1 Encoder Lib v3.1.0-19-g6ecfe8ec\nSvt[info]: SVT [build]  :\tGCC 15.2.0\t 64 bit\nSvt[info]: LIB Build date: Aug 17 2025 11:37:13\nSvt[info]: -------------------------------------------\nSvt[info]: Level of Parallelism: 5\nSvt[info]: Number of PPCS 93\nSvt[info]: [asm level on system : up to avx2]\nSvt[info]: [asm level selected : up to avx2]\nSvt[info]: -------------------------------------------\nSvt[info]: SVT [config]: main profile\ttier (auto)\tlevel (auto)\nSvt[info]: SVT [config]: width / height / fps numerator / fps denominator \t\t: 1920 / 1080 / 60 / 1\nSvt[info]: SVT [config]: bit-depth / color format \t\t\t\t\t: 8 / YUV420\nSvt[info]: SVT [config]: preset / tune / pred struct \t\t\t\t\t: 4 / PSNR / random access\nSvt[info]: SVT [config]: gop size / mini-gop size / key-frame type \t\t\t: 321 / 16 / key frame\nSvt[info]: SVT [config]: BRC mode / target bitrate (kbps)\t\t\t\t: VBR / 12000 \nSvt[info]: SVT [config]: AQ mode / Variance Boost \t\t\t\t\t: 2 / 0\nSvt[info]: SVT [config]: sharpness / luminance-based QP bias \t\t\t\t: 0 / 0\nSvt[info]: SVT [config]: QP scale compress strength \t\t\t\t\t: 0\nSvt[info]: -------------------------------------------\nOutput #0, matroska, to 'C:\\Users\\Peter\\Desktop\\stuff\\MIUN\\quantitative_research\\video_compression\\compressed_videos\\BVI-HD\\av1\\12\\KineticFastPainting_1920x1080_60fps_av1.mkv':\n  Metadata:\n    major_brand     : isom\n    minor_version   : 512\n    compatible_brands: isomiso2avc1mp41\n    encoder         : Lavf62.3.100\n  Stream #0:0(und): Video: av1 (AV01 / 0x31305641), yuv420p(tv, progressive), 1920x1080, q=2-31, 12000 kb/s, 60 fps, 1k tbn (default)\n    Metadata:\n      encoder         : Lavc62.11.100 libsvtav1\n      handler_name    : VideoHandler\n      vendor_id       : [0][0][0][0]\n    Side data:\n      cpb: bitrate max/min/avg: 0/0/12000000 buffer size: 12000000 vbv_delay: N/A\nframe=    0 fps=0.0 q=0.0 size=       0KiB time=N/A bitrate=N/A speed=N/A elapsed=0:00:01.09    \nframe=    0 fps=0.0 q=0.0 size=       0KiB time=N/A bitrate=N/A speed=N/A elapsed=0:00:01.69    \nframe=    0 fps=0.0 q=0.0 size=       0KiB time=N/A bitrate=N/A speed=N/A elapsed=0:00:02.33    \nframe=    0 fps=0.0 q=0.0 size=       0KiB time=N/A bitrate=N/A speed=N/A elapsed=0:00:02.92    \nframe=    0 fps=0.0 q=0.0 size=       0KiB time=N/A bitrate=N/A speed=N/A elapsed=0:00:03.52    \nframe=    0 fps=0.0 q=0.0 size=       0KiB time=N/A bitrate=N/A speed=N/A elapsed=0:00:04.09    \nframe=    0 fps=0.0 q=0.0 size=       0KiB time=N/A bitrate=N/A speed=N/A elapsed=0:00:04.61    \nframe=    0 fps=0.0 q=0.0 size=       0KiB time=N/A bitrate=N/A speed=N/A elapsed=0:00:05.14    \nframe=    1 fps=0.2 q=20.0 size=       1KiB time=00:00:00.00 bitrate=N/A speed=   0x elapsed=0:00:05.65    \nframe=    1 fps=0.2 q=20.0 size=       1KiB time=00:00:00.00 bitrate=N/A speed=   0x elapsed=0:00:06.20    \nframe=    1 fps=0.1 q=20.0 size=       1KiB time=00:00:00.00 bitrate=N/A speed=   0x elapsed=0:00:06.77    \nframe=    2 fps=0.3 q=33.0 size=       1KiB time=00:00:00.01 bitrate= 341.8kbits/s speed=0.00228x elapsed=0:00:07.32    \nframe=    5 fps=0.6 q=29.0 size=       1KiB time=00:00:00.06 bitrate=  85.4kbits/s speed=0.0085x elapsed=0:00:07.84    \nframe=    7 fps=0.8 q=29.0 size=       1KiB time=00:00:00.10 bitrate=  57.0kbits/s speed=0.0119x elapsed=0:00:08.42    \nframe=   10 fps=1.1 q=28.0 size=       1KiB time=00:00:00.13 bitrate=  42.7kbits/s speed=0.0147x elapsed=0:00:09.05    \nframe=   13 fps=1.3 q=27.0 size=       1KiB time=00:00:00.18 bitrate=  31.1kbits/s speed=0.0189x elapsed=0:00:09.67    \nframe=   16 fps=1.6 q=27.0 size=       1KiB time=00:00:00.25 bitrate=  22.8kbits/s speed=0.0244x elapsed=0:00:10.24    \nframe=   19 fps=1.8 q=28.0 size=       1KiB time=00:00:00.30 bitrate=  19.0kbits/s speed=0.0278x elapsed=0:00:10.77    \nframe=   21 fps=1.9 q=27.0 size=       1KiB time=00:00:00.33 bitrate=  17.1kbits/s speed=0.0295x elapsed=0:00:11.29    \nframe=   23 fps=1.9 q=28.0 size=       1KiB time=00:00:00.36 bitrate=  15.5kbits/s speed=0.0309x elapsed=0:00:11.85    \nframe=   26 fps=2.1 q=29.0 size=       1KiB time=00:00:00.41 bitrate=  13.7kbits/s speed=0.0335x elapsed=0:00:12.43    \nframe=   31 fps=2.4 q=29.0 size=       1KiB time=00:00:00.48 bitrate=  11.8kbits/s speed=0.0373x elapsed=0:00:12.95    \nframe=   34 fps=2.5 q=31.0 size=       1KiB time=00:00:00.55 bitrate=  10.4kbits/s speed=0.0408x elapsed=0:00:13.48    \nframe=   36 fps=2.6 q=31.0 size=       1KiB time=00:00:00.58 bitrate=   9.8kbits/s speed=0.0416x elapsed=0:00:14.01    \nframe=   39 fps=2.7 q=30.0 size=       1KiB time=00:00:00.61 bitrate=   9.2kbits/s speed=0.0423x elapsed=0:00:14.56    \nframe=   42 fps=2.8 q=31.0 size=       1KiB time=00:00:00.66 bitrate=   8.5kbits/s speed=0.0439x elapsed=0:00:15.19    \nframe=   45 fps=2.9 q=27.0 size=       1KiB time=00:00:00.73 bitrate=   7.8kbits/s speed=0.0466x elapsed=0:00:15.75    \nframe=   49 fps=3.0 q=21.0 size=       1KiB time=00:00:00.80 bitrate=   7.1kbits/s speed=0.0492x elapsed=0:00:16.26    \nframe=   52 fps=3.1 q=33.0 size=       1KiB time=00:00:00.85 bitrate=   6.7kbits/s speed=0.0506x elapsed=0:00:16.80    \nframe=   54 fps=3.1 q=33.0 size=       1KiB time=00:00:00.88 bitrate=   6.4kbits/s speed=0.051x elapsed=0:00:17.33    \nframe=   57 fps=3.2 q=27.0 size=       1KiB time=00:00:00.93 bitrate=   6.1kbits/s speed=0.0522x elapsed=0:00:17.87    \nframe=   62 fps=3.4 q=32.0 size=       1KiB time=00:00:01.01 bitrate=   5.6kbits/s speed=0.0551x elapsed=0:00:18.43    \nframe=   66 fps=3.5 q=33.0 size=       1KiB time=00:00:01.08 bitrate=   5.3kbits/s speed=0.0571x elapsed=0:00:18.97    \nframe=   68 fps=3.5 q=33.0 size=       1KiB time=00:00:01.11 bitrate=   5.1kbits/s speed=0.0573x elapsed=0:00:19.49    \nframe=   70 fps=3.5 q=33.0 size=       1KiB time=00:00:01.15 bitrate=   5.0kbits/s speed=0.0574x elapsed=0:00:20.03    \nframe=   73 fps=3.5 q=28.0 size=       1KiB time=00:00:01.20 bitrate=   4.7kbits/s speed=0.0583x elapsed=0:00:20.57    \nframe=   76 fps=3.6 q=32.0 size=       1KiB time=00:00:01.25 bitrate=   4.6kbits/s speed=0.0591x elapsed=0:00:21.14    \nframe=   81 fps=3.7 q=22.0 size=       1KiB time=00:00:01.31 bitrate=   4.3kbits/s speed=0.0606x elapsed=0:00:21.71    \nframe=   83 fps=3.7 q=30.0 size=       1KiB time=00:00:01.36 bitrate=   4.2kbits/s speed=0.0613x elapsed=0:00:22.29    \nframe=   85 fps=3.7 q=28.0 size=       1KiB time=00:00:01.40 bitrate=   4.1kbits/s speed=0.061x elapsed=0:00:22.94    \nframe=   87 fps=3.7 q=30.0 size=       1KiB time=00:00:01.41 bitrate=   4.0kbits/s speed=0.0602x elapsed=0:00:23.51    \nframe=   90 fps=3.7 q=32.0 size=       1KiB time=00:00:01.46 bitrate=   3.9kbits/s speed=0.0606x elapsed=0:00:24.20    \nframe=   93 fps=3.7 q=28.0 size=       1KiB time=00:00:01.51 bitrate=   3.8kbits/s speed=0.0611x elapsed=0:00:24.80    \nframe=   96 fps=3.8 q=30.0 size=       1KiB time=00:00:01.58 bitrate=   3.6kbits/s speed=0.0622x elapsed=0:00:25.44    \nframe=   98 fps=3.8 q=33.0 size=       1KiB time=00:00:01.61 bitrate=   3.5kbits/s speed=0.0623x elapsed=0:00:25.96    \nframe=  100 fps=3.8 q=33.0 size=       1KiB time=00:00:01.65 bitrate=   3.5kbits/s speed=0.0622x elapsed=0:00:26.54    \nframe=  102 fps=3.8 q=33.0 size=       1KiB time=00:00:01.68 bitrate=   3.4kbits/s speed=0.0621x elapsed=0:00:27.09    \nframe=  104 fps=3.8 q=33.0 size=       1KiB time=00:00:01.71 bitrate=   3.3kbits/s speed=0.062x elapsed=0:00:27.70    \nframe=  105 fps=3.7 q=28.0 size=       1KiB time=00:00:01.73 bitrate=   3.3kbits/s speed=0.0611x elapsed=0:00:28.38    \nframe=  108 fps=3.7 q=33.0 size=       1KiB time=00:00:01.78 bitrate=   3.2kbits/s speed=0.0614x elapsed=0:00:29.04    \nframe=  112 fps=3.8 q=32.0 size=       1KiB time=00:00:01.83 bitrate=   3.1kbits/s speed=0.0619x elapsed=0:00:29.62    \nframe=  115 fps=3.8 q=32.0 size=       1KiB time=00:00:01.88 bitrate=   3.0kbits/s speed=0.0623x elapsed=0:00:30.23    \nframe=  117 fps=3.8 q=29.0 size=       1KiB time=00:00:01.93 bitrate=   2.9kbits/s speed=0.0627x elapsed=0:00:30.85    \nframe=  119 fps=3.8 q=32.0 size=       1KiB time=00:00:01.96 bitrate=   2.9kbits/s speed=0.0625x elapsed=0:00:31.47    \nframe=  122 fps=3.8 q=33.0 size=       1KiB time=00:00:02.01 bitrate=   2.8kbits/s speed=0.0629x elapsed=0:00:32.07    \nframe=  125 fps=3.8 q=29.0 size=       1KiB time=00:00:02.05 bitrate=   2.8kbits/s speed=0.0627x elapsed=0:00:32.67    \nframe=  128 fps=3.8 q=29.0 size=       1KiB time=00:00:02.11 bitrate=   2.7kbits/s speed=0.0636x elapsed=0:00:33.28    \nframe=  130 fps=3.8 q=33.0 size=       1KiB time=00:00:02.15 bitrate=   2.6kbits/s speed=0.0636x elapsed=0:00:33.79    \nframe=  133 fps=3.9 q=31.0 size=       1KiB time=00:00:02.20 bitrate=   2.6kbits/s speed=0.064x elapsed=0:00:34.37    \nframe=  135 fps=3.9 q=32.0 size=       1KiB time=00:00:02.21 bitrate=   2.6kbits/s speed=0.0633x elapsed=0:00:35.00    \nframe=  138 fps=3.9 q=33.0 size=       1KiB time=00:00:02.28 bitrate=   2.5kbits/s speed=0.064x elapsed=0:00:35.65    \nframe=  143 fps=3.9 q=32.0 size=       1KiB time=00:00:02.36 bitrate=   2.4kbits/s speed=0.0652x elapsed=0:00:36.30    \nframe=  146 fps=4.0 q=34.0 size=       1KiB time=00:00:02.41 bitrate=   2.4kbits/s speed=0.0655x elapsed=0:00:36.90    \nframe=  149 fps=4.0 q=32.0 size=       1KiB time=00:00:02.46 bitrate=   2.3kbits/s speed=0.0658x elapsed=0:00:37.45    \nframe=  152 fps=4.0 q=34.0 size=       1KiB time=00:00:02.50 bitrate=   2.3kbits/s speed=0.0658x elapsed=0:00:38.01    \nframe=  153 fps=4.0 q=29.0 size=       1KiB time=00:00:02.53 bitrate=   2.2kbits/s speed=0.0657x elapsed=0:00:38.56    \nframe=  158 fps=4.0 q=33.0 size=       1KiB time=00:00:02.60 bitrate=   2.2kbits/s speed=0.0664x elapsed=0:00:39.13    \nframe=  161 fps=4.0 q=24.0 size=       1KiB time=00:00:02.66 bitrate=   2.1kbits/s speed=0.0671x elapsed=0:00:39.76    \nframe=  163 fps=4.0 q=32.0 size=       1KiB time=00:00:02.70 bitrate=   2.1kbits/s speed=0.067x elapsed=0:00:40.30    \nframe=  165 fps=4.0 q=29.0 size=       1KiB time=00:00:02.73 bitrate=   2.1kbits/s speed=0.0668x elapsed=0:00:40.90    \nframe=  168 fps=4.1 q=33.0 size=       1KiB time=00:00:02.76 bitrate=   2.1kbits/s speed=0.0667x elapsed=0:00:41.47    \nframe=  170 fps=4.0 q=33.0 size=       1KiB time=00:00:02.81 bitrate=   2.0kbits/s speed=0.067x elapsed=0:00:42.04    \nframe=  176 fps=4.1 q=31.0 size=       1KiB time=00:00:02.90 bitrate=   2.0kbits/s speed=0.0681x elapsed=0:00:42.55    \nframe=  179 fps=4.2 q=32.0 size=       1KiB time=00:00:02.96 bitrate=   1.9kbits/s speed=0.0688x elapsed=0:00:43.13    \nframe=  182 fps=4.2 q=32.0 size=       1KiB time=00:00:03.00 bitrate=   1.9kbits/s speed=0.0687x elapsed=0:00:43.67    \nframe=  183 fps=4.1 q=32.0 size=       1KiB time=00:00:03.03 bitrate=   1.9kbits/s speed=0.0685x elapsed=0:00:44.29    \nframe=  187 fps=4.2 q=30.0 size=       1KiB time=00:00:03.10 bitrate=   1.8kbits/s speed=0.0692x elapsed=0:00:44.82    \nframe=  193 fps=4.3 q=24.0 size=       1KiB time=00:00:03.20 bitrate=   1.8kbits/s speed=0.0705x elapsed=0:00:45.37    \nframe=  196 fps=4.3 q=34.0 size=    5120KiB time=00:00:03.25 bitrate=12905.6kbits/s speed=0.0708x elapsed=0:00:45.90    \nframe=  198 fps=4.3 q=34.0 size=    5120KiB time=00:00:03.28 bitrate=12774.5kbits/s speed=0.0707x elapsed=0:00:46.44    \nframe=  205 fps=4.4 q=29.0 size=    5120KiB time=00:00:03.33 bitrate=12582.9kbits/s speed=0.0709x elapsed=0:00:47.02    \nframe=  207 fps=4.3 q=32.0 size=    5120KiB time=00:00:03.43 bitrate=12216.4kbits/s speed=0.0721x elapsed=0:00:47.64    \nframe=  213 fps=4.4 q=32.0 size=    5120KiB time=00:00:03.53 bitrate=11870.7kbits/s speed=0.0734x elapsed=0:00:48.16    \nframe=  217 fps=4.5 q=29.0 size=    5120KiB time=00:00:03.60 bitrate=11650.8kbits/s speed=0.0739x elapsed=0:00:48.70    \nframe=  217 fps=4.4 q=29.0 size=    5120KiB time=00:00:03.60 bitrate=11650.8kbits/s speed=0.0731x elapsed=0:00:49.22    \nframe=  221 fps=4.4 q=29.0 size=    5120KiB time=00:00:03.66 bitrate=11439.0kbits/s speed=0.0736x elapsed=0:00:49.82    \nframe=  227 fps=4.5 q=32.0 size=    5120KiB time=00:00:03.76 bitrate=11135.3kbits/s speed=0.0748x elapsed=0:00:50.35    \nframe=  231 fps=4.5 q=32.0 size=    5120KiB time=00:00:03.83 bitrate=10941.7kbits/s speed=0.0753x elapsed=0:00:50.89    \nframe=  233 fps=4.5 q=29.0 size=    5120KiB time=00:00:03.86 bitrate=10847.3kbits/s speed=0.0752x elapsed=0:00:51.45    \nframe=  237 fps=4.6 q=29.0 size=    5120KiB time=00:00:03.93 bitrate=10663.5kbits/s speed=0.0756x elapsed=0:00:52.02    \nframe=  241 fps=4.6 q=24.0 size=    5120KiB time=00:00:04.00 bitrate=10485.8kbits/s speed=0.0761x elapsed=0:00:52.57    \nframe=  245 fps=4.6 q=32.0 size=    5120KiB time=00:00:04.06 bitrate=10313.9kbits/s speed=0.0766x elapsed=0:00:53.10    \nframe=  249 fps=4.6 q=29.0 size=    5120KiB time=00:00:04.13 bitrate=10147.5kbits/s speed=0.077x elapsed=0:00:53.65    \nframe=  253 fps=4.7 q=29.0 size=    5120KiB time=00:00:04.20 bitrate=9986.4kbits/s speed=0.0774x elapsed=0:00:54.25    \nframe=  255 fps=4.7 q=31.0 size=    5120KiB time=00:00:04.23 bitrate=9907.8kbits/s speed=0.0772x elapsed=0:00:54.82    \nframe=  261 fps=4.7 q=31.0 size=    5120KiB time=00:00:04.33 bitrate=9679.2kbits/s speed=0.0782x elapsed=0:00:55.40    \nframe=  265 fps=4.7 q=29.0 size=    5120KiB time=00:00:04.40 bitrate=9532.5kbits/s speed=0.0786x elapsed=0:00:55.95    \nframe=  267 fps=4.7 q=31.0 size=    5120KiB time=00:00:04.40 bitrate=9532.5kbits/s speed=0.0778x elapsed=0:00:56.55    \nframe=  269 fps=4.7 q=29.0 size=    5120KiB time=00:00:04.46 bitrate=9390.2kbits/s speed=0.0782x elapsed=0:00:57.10    \nframe=  277 fps=4.8 q=32.0 size=    5120KiB time=00:00:04.56 bitrate=9184.6kbits/s speed=0.0792x elapsed=0:00:57.63    \nframe=  281 fps=4.8 q=29.0 size=    5120KiB time=00:00:04.66 bitrate=8987.8kbits/s speed=0.0802x elapsed=0:00:58.19    \nframe=  281 fps=4.8 q=29.0 size=    5120KiB time=00:00:04.66 bitrate=8987.8kbits/s speed=0.0795x elapsed=0:00:58.72    \nframe=  285 fps=4.8 q=32.0 size=    5120KiB time=00:00:04.73 bitrate=8861.2kbits/s speed=0.0799x elapsed=0:00:59.25    \nframe=  295 fps=4.9 q=32.0 size=    5120KiB time=00:00:04.90 bitrate=8559.8kbits/s speed=0.0819x elapsed=0:00:59.83    \n[out#0/matroska @ 00000261278194c0] video:7487KiB audio:0KiB subtitle:0KiB other streams:0KiB global headers:0KiB muxing overhead: 0.028799%\nframe=  300 fps=5.0 q=32.0 Lsize=    7489KiB time=00:00:04.98 bitrate=12311.7kbits/s speed=0.0832x elapsed=0:00:59.90    \n",
  "seconds": 60.59300446510315,
  "probe_out": {}
}